G04*
G04 #@! TF.GenerationSoftware,Altium Limited,Altium Designer Develop,26.10.1 (6)*
G04*
G04 Layer_Color=8388736*
G04 Board_Origin=0|0*
%FSLAX43Y43*%
%MOMM*%
G71*
G04*
G04 #@! TF.SameCoordinates,579D98E3-A27E-4EBF-B594-C9354D503A29*
G04*
G04*
G04 #@! TF.FilePolarity,Negative*
G04*
G01*
G75*
%ADD14R,1.000X0.850*%
%ADD15R,1.200X0.900*%
%ADD16R,1.550X1.500*%
G04:AMPARAMS|DCode=17|XSize=0.55mm|YSize=0.8mm|CornerRadius=0.05mm|HoleSize=0mm|Usage=FLASHONLY|Rotation=90.000|XOffset=0mm|YOffset=0mm|HoleType=Round|Shape=RoundedRectangle|*
%AMROUNDEDRECTD17*
21,1,0.550,0.701,0,0,90.0*
21,1,0.451,0.800,0,0,90.0*
1,1,0.099,0.351,0.226*
1,1,0.099,0.351,-0.226*
1,1,0.099,-0.351,-0.226*
1,1,0.099,-0.351,0.226*
%
%ADD17ROUNDEDRECTD17*%
%ADD18R,1.350X1.100*%
%ADD19R,1.350X0.950*%
%ADD20R,1.550X1.550*%
%ADD21C,1.550*%
%ADD22C,1.270*%
D14*
X111379Y89154D02*
D03*
Y90504D02*
D03*
D15*
X113538Y84802D02*
D03*
X113919Y90458D02*
D03*
X113538Y86902D02*
D03*
X113919Y88358D02*
D03*
D16*
X105283Y87884D02*
D03*
Y89684D02*
D03*
D17*
X107056Y88773D02*
D03*
X109606Y89723D02*
D03*
Y87823D02*
D03*
Y88773D02*
D03*
X107056Y89723D02*
D03*
Y87823D02*
D03*
D18*
X111379Y85508D02*
D03*
Y86958D02*
D03*
D19*
X111506Y93333D02*
D03*
Y91833D02*
D03*
D20*
X108458Y92964D02*
D03*
X105918Y85217D02*
D03*
D21*
Y92964D02*
D03*
X108458Y85217D02*
D03*
D22*
X111379Y85508D02*
D03*
X111506Y93333D02*
D03*
X113538Y84802D02*
D03*
X105283Y87884D02*
D03*
M02*
