G04*
G04 #@! TF.GenerationSoftware,Altium Limited,Altium Designer Develop,26.10.1 (6)*
G04*
G04 Layer_Physical_Order=1*
G04 Layer_Color=255*
G04 Board_Origin=0|0*
%FSLAX43Y43*%
%MOMM*%
G71*
G04*
G04 #@! TF.SameCoordinates,579D98E3-A27E-4EBF-B594-C9354D503A29*
G04*
G04*
G04 #@! TF.FilePolarity,Positive*
G04*
G01*
G75*
%ADD14R,1.000X0.850*%
%ADD15R,1.200X0.900*%
%ADD16R,1.550X1.500*%
G04:AMPARAMS|DCode=17|XSize=0.55mm|YSize=0.8mm|CornerRadius=0.05mm|HoleSize=0mm|Usage=FLASHONLY|Rotation=90.000|XOffset=0mm|YOffset=0mm|HoleType=Round|Shape=RoundedRectangle|*
%AMROUNDEDRECTD17*
21,1,0.550,0.701,0,0,90.0*
21,1,0.451,0.800,0,0,90.0*
1,1,0.099,0.351,0.226*
1,1,0.099,0.351,-0.226*
1,1,0.099,-0.351,-0.226*
1,1,0.099,-0.351,0.226*
%
%ADD17ROUNDEDRECTD17*%
%ADD18R,1.350X1.100*%
%ADD19R,1.350X0.950*%
%ADD20R,1.550X1.550*%
%ADD21C,1.550*%
%ADD22C,1.270*%
%ADD23C,0.254*%
D14*
X111379Y89154D02*
D03*
Y90504D02*
D03*
D15*
X113538Y84802D02*
D03*
X113919Y90458D02*
D03*
X113538Y86902D02*
D03*
X113919Y88358D02*
D03*
D16*
X105283Y87884D02*
D03*
Y89684D02*
D03*
D17*
X107056Y88773D02*
D03*
X109606Y89723D02*
D03*
Y87823D02*
D03*
Y88773D02*
D03*
X107056Y89723D02*
D03*
Y87823D02*
D03*
D18*
X111379Y85508D02*
D03*
Y86958D02*
D03*
D19*
X111506Y93333D02*
D03*
Y91833D02*
D03*
D20*
X108458Y92964D02*
D03*
X105918Y85217D02*
D03*
D21*
Y92964D02*
D03*
X108458Y85217D02*
D03*
D22*
X111379Y85508D02*
D03*
X111506Y93333D02*
D03*
X113538Y84802D02*
D03*
X105283Y87884D02*
D03*
D23*
X110389Y87823D02*
X111254Y86958D01*
X109606Y87823D02*
X110389D01*
X111519Y90364D02*
X112734D01*
X111379Y90504D02*
X111519Y90364D01*
X112734D02*
X112828Y90458D01*
X113919D01*
X110371Y90236D02*
X111111D01*
X111379Y90504D01*
X110249Y90358D02*
X110371Y90236D01*
X109733Y90358D02*
X110249D01*
X109733Y90104D02*
Y90358D01*
X109416Y89787D02*
X109733Y90104D01*
X111304Y89154D02*
X111454D01*
X110923Y88773D02*
X111304Y89154D01*
X109606Y88773D02*
X110923D01*
X112046Y88562D02*
X113615D01*
X111454Y89154D02*
X112046Y88562D01*
X106058Y90158D02*
Y90564D01*
X108458Y92964D01*
X106931Y88773D02*
X107056D01*
X106665Y88507D02*
X106931Y88773D01*
X105906Y88507D02*
X106665D01*
X105283Y87884D02*
X105906Y88507D01*
X112656Y92181D02*
X112689Y92214D01*
X111854Y92181D02*
X112656D01*
X111506Y91833D02*
X111854Y92181D01*
X112689Y92214D02*
X112994D01*
X113919Y90458D02*
Y91289D01*
X112994Y92214D02*
X113919Y91289D01*
X108345Y88716D02*
X109416Y89787D01*
X108345Y87644D02*
Y88716D01*
X105918Y85217D02*
X108345Y87644D01*
X111254Y86958D02*
X111379D01*
X113538Y86902D02*
Y88323D01*
X113660Y88445D01*
X105283Y89684D02*
X105559D01*
X105598Y89723D01*
X105483Y89859D02*
X105931Y90307D01*
X105308Y89684D02*
X105483Y89859D01*
X105598Y89723D02*
X107056D01*
X113832Y88445D02*
X113919Y88358D01*
X113660Y88445D02*
X113832D01*
X105283Y89684D02*
X105308D01*
X106931Y89723D02*
X107079Y89575D01*
X107439D01*
X107837Y89177D01*
Y88369D02*
Y89177D01*
X107585Y88117D02*
X107837Y88369D01*
X107475Y88117D02*
X107585D01*
X107181Y87823D02*
X107475Y88117D01*
X107056Y87823D02*
X107181D01*
M02*
